<?xml version="1.0" standalone="no"?>
<!DOCTYPE svg PUBLIC "-//W3C//DTD SVG 20010904//EN"
 "http://www.w3.org/TR/2001/REC-SVG-20010904/DTD/svg10.dtd">
<svg version="1.0" xmlns="http://www.w3.org/2000/svg"
 width="386.000000pt" height="400.000000pt" viewBox="0 0 386.000000 400.000000"
 preserveAspectRatio="xMidYMid meet">

<g transform="translate(0.000000,400.000000) scale(0.100000,-0.100000)"
fill="#000000" stroke="none">
<path d="M1921 641 c-7 -5 -11 -15 -9 -22 3 -10 8 -7 17 9 13 24 12 26 -8 13z"/>
<path d="M1905 568 c-10 -44 -16 -53 -27 -37 -6 9 -7 2 -3 -21 7 -37 21 -60
23 -38 0 12 4 33 18 101 3 15 3 27 1 27 -3 0 -9 -15 -12 -32z"/>
</g>
</svg>
